<svg xmlns="http://www.w3.org/2000/svg" xmlns:xlink="http://www.w3.org/1999/xlink" width="500" zoomAndPan="magnify" viewBox="0 0 375 374.999991" height="500" preserveAspectRatio="xMidYMid meet" version="1.0"><defs><g/><clipPath id="fde0093c0f"><path d="M 37.5 154 L 44 154 L 44 213 L 37.5 213 Z M 37.5 154 " clip-rule="nonzero"/></clipPath><clipPath id="a5bc1374ac"><path d="M 309 150 L 331 150 L 331 173 L 309 173 Z M 309 150 " clip-rule="nonzero"/></clipPath><clipPath id="f4645cdb28"><path d="M 304.839844 153.320312 L 320.574219 140.574219 L 339.460938 163.882812 L 323.726562 176.628906 Z M 304.839844 153.320312 " clip-rule="nonzero"/></clipPath><clipPath id="cf88a99bc1"><path d="M 304.839844 153.320312 L 320.574219 140.574219 L 339.460938 163.882812 L 323.726562 176.628906 Z M 304.839844 153.320312 " clip-rule="nonzero"/></clipPath></defs><g fill="#ffffff" fill-opacity="1"><g transform="translate(127.789463, 189.896853)"><g><path d="M 21.984375 -25.1875 C 21.984375 -25.632812 22.148438 -25.96875 22.484375 -26.1875 C 22.816406 -26.40625 23.191406 -26.515625 23.609375 -26.515625 C 23.992188 -26.515625 24.34375 -26.410156 24.65625 -26.203125 C 24.976562 -25.992188 25.140625 -25.65625 25.140625 -25.1875 L 25.140625 -1.796875 C 25.140625 -1.179688 24.9375 -0.726562 24.53125 -0.4375 C 24.132812 -0.144531 23.703125 0 23.234375 0 C 22.867188 0 22.519531 -0.0820312 22.1875 -0.25 C 21.851562 -0.414062 21.585938 -0.648438 21.390625 -0.953125 L 5.796875 -21.640625 L 6.125 -15.890625 L 6.125 -1.546875 C 6.125 -1.015625 5.957031 -0.625 5.625 -0.375 C 5.289062 -0.125 4.929688 0 4.546875 0 C 4.160156 0 3.796875 -0.125 3.453125 -0.375 C 3.117188 -0.625 2.953125 -1.015625 2.953125 -1.546875 L 2.953125 -24.6875 C 2.953125 -25.300781 3.117188 -25.757812 3.453125 -26.0625 C 3.796875 -26.363281 4.1875 -26.515625 4.625 -26.515625 C 5.351562 -26.515625 5.925781 -26.195312 6.34375 -25.5625 L 22.390625 -4.46875 L 21.984375 -10.765625 Z M 21.984375 -25.1875 "/></g></g></g><g fill="#ffffff" fill-opacity="1"><g transform="translate(156.600912, 189.896853)"><g><path d="M 24.5625 -25.390625 C 24.5625 -25.921875 24.726562 -26.3125 25.0625 -26.5625 C 25.394531 -26.8125 25.753906 -26.9375 26.140625 -26.9375 C 26.535156 -26.9375 26.890625 -26.8125 27.203125 -26.5625 C 27.523438 -26.3125 27.6875 -25.9375 27.6875 -25.4375 L 27.6875 -11.640625 C 27.6875 -9.628906 27.335938 -7.875 26.640625 -6.375 C 25.953125 -4.875 25.015625 -3.613281 23.828125 -2.59375 C 22.648438 -1.582031 21.332031 -0.828125 19.875 -0.328125 C 18.414062 0.171875 16.921875 0.421875 15.390625 0.421875 C 13.859375 0.421875 12.363281 0.171875 10.90625 -0.328125 C 9.445312 -0.828125 8.125 -1.582031 6.9375 -2.59375 C 5.757812 -3.613281 4.820312 -4.875 4.125 -6.375 C 3.4375 -7.875 3.09375 -9.628906 3.09375 -11.640625 L 3.09375 -25.5625 C 3.09375 -26.03125 3.257812 -26.375 3.59375 -26.59375 C 3.925781 -26.820312 4.269531 -26.9375 4.625 -26.9375 C 5.019531 -26.9375 5.382812 -26.816406 5.71875 -26.578125 C 6.050781 -26.347656 6.21875 -25.992188 6.21875 -25.515625 L 6.21875 -11.640625 C 6.21875 -9.628906 6.660156 -7.957031 7.546875 -6.625 C 8.429688 -5.289062 9.578125 -4.28125 10.984375 -3.59375 C 12.390625 -2.914062 13.859375 -2.578125 15.390625 -2.578125 C 16.921875 -2.578125 18.382812 -2.914062 19.78125 -3.59375 C 21.1875 -4.28125 22.332031 -5.289062 23.21875 -6.625 C 24.113281 -7.957031 24.5625 -9.628906 24.5625 -11.640625 Z M 24.5625 -25.390625 "/></g></g></g><g fill="#ffffff" fill-opacity="1"><g transform="translate(188.247635, 189.896853)"><g><path d="M 26.359375 -25.640625 C 26.546875 -25.953125 26.765625 -26.175781 27.015625 -26.3125 C 27.273438 -26.445312 27.539062 -26.515625 27.8125 -26.515625 C 28.207031 -26.515625 28.539062 -26.375 28.8125 -26.09375 C 29.09375 -25.820312 29.234375 -25.421875 29.234375 -24.890625 L 29.234375 -1.5 C 29.234375 -1 29.078125 -0.625 28.765625 -0.375 C 28.460938 -0.125 28.117188 0 27.734375 0 C 27.347656 0 26.992188 -0.125 26.671875 -0.375 C 26.347656 -0.625 26.1875 -1 26.1875 -1.5 L 26.1875 -19.84375 L 17.6875 -6.546875 C 17.320312 -5.960938 16.847656 -5.671875 16.265625 -5.671875 C 15.679688 -5.671875 15.191406 -5.960938 14.796875 -6.546875 L 6.296875 -19.765625 L 6.296875 -1.5 C 6.296875 -1 6.140625 -0.625 5.828125 -0.375 C 5.523438 -0.125 5.179688 0 4.796875 0 C 4.410156 0 4.054688 -0.125 3.734375 -0.375 C 3.410156 -0.625 3.25 -1 3.25 -1.5 L 3.25 -24.859375 C 3.25 -25.378906 3.398438 -25.785156 3.703125 -26.078125 C 4.015625 -26.367188 4.351562 -26.515625 4.71875 -26.515625 C 4.96875 -26.515625 5.21875 -26.4375 5.46875 -26.28125 C 5.71875 -26.132812 5.925781 -25.910156 6.09375 -25.609375 L 16.265625 -9.796875 Z M 26.359375 -25.640625 "/></g></g></g><g fill="#ffffff" fill-opacity="1"><g transform="translate(221.687257, 189.896853)"><g><path d="M 6.171875 -2.75 L 22.640625 -2.75 C 23.085938 -2.75 23.425781 -2.609375 23.65625 -2.328125 C 23.894531 -2.054688 24.019531 -1.738281 24.03125 -1.375 C 24.050781 -1.007812 23.945312 -0.6875 23.71875 -0.40625 C 23.5 -0.132812 23.140625 0 22.640625 0 L 5.09375 0 C 4.507812 0 4.039062 -0.175781 3.6875 -0.53125 C 3.34375 -0.894531 3.171875 -1.328125 3.171875 -1.828125 L 3.171875 -24.734375 C 3.171875 -25.203125 3.34375 -25.613281 3.6875 -25.96875 C 4.039062 -26.332031 4.507812 -26.515625 5.09375 -26.515625 L 22.6875 -26.515625 C 23.132812 -26.515625 23.46875 -26.382812 23.6875 -26.125 C 23.90625 -25.863281 24.007812 -25.550781 24 -25.1875 C 23.988281 -24.820312 23.867188 -24.507812 23.640625 -24.25 C 23.421875 -23.988281 23.085938 -23.859375 22.640625 -23.859375 L 6.171875 -23.859375 L 6.171875 -14.46875 L 21.859375 -14.46875 C 22.273438 -14.46875 22.59375 -14.332031 22.8125 -14.0625 C 23.03125 -13.800781 23.140625 -13.488281 23.140625 -13.125 C 23.140625 -12.769531 23.035156 -12.457031 22.828125 -12.1875 C 22.617188 -11.925781 22.296875 -11.796875 21.859375 -11.796875 L 6.171875 -11.796875 Z M 6.171875 -2.75 "/></g></g></g><g fill="#ffffff" fill-opacity="1"><g transform="translate(248.330555, 189.896853)"><g><path d="M 6.21875 -9.265625 L 6.21875 -1.453125 C 6.21875 -0.984375 6.054688 -0.625 5.734375 -0.375 C 5.410156 -0.125 5.054688 0 4.671875 0 C 4.304688 0 3.960938 -0.125 3.640625 -0.375 C 3.328125 -0.625 3.171875 -0.972656 3.171875 -1.421875 L 3.171875 -25.0625 C 3.171875 -25.507812 3.316406 -25.863281 3.609375 -26.125 C 3.898438 -26.382812 4.269531 -26.515625 4.71875 -26.515625 L 14.59375 -26.515625 C 17.007812 -26.515625 19.023438 -26.101562 20.640625 -25.28125 C 22.253906 -24.46875 23.460938 -23.382812 24.265625 -22.03125 C 25.078125 -20.6875 25.484375 -19.195312 25.484375 -17.5625 C 25.484375 -15.445312 24.882812 -13.671875 23.6875 -12.234375 C 22.488281 -10.804688 20.613281 -9.867188 18.0625 -9.421875 L 24.4375 -2.546875 C 24.820312 -2.148438 24.992188 -1.757812 24.953125 -1.375 C 24.910156 -0.988281 24.75 -0.660156 24.46875 -0.390625 C 24.195312 -0.128906 23.867188 0 23.484375 0 C 23.066406 0 22.691406 -0.179688 22.359375 -0.546875 L 14.296875 -9.265625 Z M 6.21875 -11.890625 L 14.640625 -11.890625 C 17.335938 -11.890625 19.300781 -12.421875 20.53125 -13.484375 C 21.769531 -14.554688 22.390625 -15.859375 22.390625 -17.390625 C 22.367188 -19.191406 21.675781 -20.695312 20.3125 -21.90625 C 18.945312 -23.125 17.054688 -23.734375 14.640625 -23.734375 L 6.21875 -23.734375 Z M 6.21875 -11.890625 "/></g></g></g><g fill="#ffffff" fill-opacity="1"><g transform="translate(275.724367, 189.896853)"><g><path d="M 2.875 -24.984375 C 2.875 -25.503906 3.039062 -25.890625 3.375 -26.140625 C 3.707031 -26.390625 4.054688 -26.515625 4.421875 -26.515625 C 4.804688 -26.515625 5.164062 -26.390625 5.5 -26.140625 C 5.832031 -25.890625 6 -25.503906 6 -24.984375 L 6 -1.453125 C 6 -0.984375 5.832031 -0.625 5.5 -0.375 C 5.164062 -0.125 4.804688 0 4.421875 0 C 4.035156 0 3.679688 -0.113281 3.359375 -0.34375 C 3.035156 -0.582031 2.875 -0.953125 2.875 -1.453125 Z M 2.875 -24.984375 "/></g></g></g><g fill="#ffffff" fill-opacity="1"><g transform="translate(284.897332, 189.896853)"><g><path d="M 0.921875 -5.84375 C 0.804688 -6.3125 0.875 -6.691406 1.125 -6.984375 C 1.375 -7.273438 1.710938 -7.460938 2.140625 -7.546875 C 2.578125 -7.628906 2.972656 -7.59375 3.328125 -7.4375 C 3.691406 -7.289062 3.914062 -7.007812 4 -6.59375 C 4.28125 -5.726562 4.742188 -5.03125 5.390625 -4.5 C 6.046875 -3.976562 6.8125 -3.578125 7.6875 -3.296875 C 8.570312 -3.015625 9.476562 -2.820312 10.40625 -2.71875 C 11.332031 -2.625 12.210938 -2.578125 13.046875 -2.578125 C 13.941406 -2.578125 14.910156 -2.644531 15.953125 -2.78125 C 16.992188 -2.925781 17.976562 -3.179688 18.90625 -3.546875 C 19.84375 -3.910156 20.609375 -4.425781 21.203125 -5.09375 C 21.804688 -5.757812 22.109375 -6.617188 22.109375 -7.671875 C 22.109375 -8.585938 21.851562 -9.3125 21.34375 -9.84375 C 20.84375 -10.375 20.171875 -10.773438 19.328125 -11.046875 C 18.484375 -11.328125 17.523438 -11.53125 16.453125 -11.65625 C 15.378906 -11.78125 14.273438 -11.882812 13.140625 -11.96875 C 11.691406 -12.082031 10.265625 -12.234375 8.859375 -12.421875 C 7.453125 -12.617188 6.171875 -12.945312 5.015625 -13.40625 C 3.867188 -13.863281 2.945312 -14.550781 2.25 -15.46875 C 1.550781 -16.382812 1.203125 -17.625 1.203125 -19.1875 C 1.203125 -20.570312 1.550781 -21.75 2.25 -22.71875 C 2.945312 -23.695312 3.863281 -24.5 5 -25.125 C 6.144531 -25.75 7.382812 -26.207031 8.71875 -26.5 C 10.050781 -26.789062 11.359375 -26.9375 12.640625 -26.9375 C 13.722656 -26.9375 14.851562 -26.863281 16.03125 -26.71875 C 17.21875 -26.582031 18.351562 -26.320312 19.4375 -25.9375 C 20.519531 -25.550781 21.476562 -24.988281 22.3125 -24.25 C 23.144531 -23.507812 23.785156 -22.546875 24.234375 -21.359375 C 24.398438 -20.929688 24.378906 -20.570312 24.171875 -20.28125 C 23.960938 -19.988281 23.671875 -19.785156 23.296875 -19.671875 C 22.921875 -19.566406 22.550781 -19.5625 22.1875 -19.65625 C 21.820312 -19.757812 21.554688 -19.988281 21.390625 -20.34375 C 20.972656 -21.40625 20.265625 -22.1875 19.265625 -22.6875 C 18.265625 -23.1875 17.164062 -23.503906 15.96875 -23.640625 C 14.769531 -23.785156 13.671875 -23.859375 12.671875 -23.859375 C 11.984375 -23.859375 11.171875 -23.785156 10.234375 -23.640625 C 9.304688 -23.503906 8.40625 -23.257812 7.53125 -22.90625 C 6.65625 -22.5625 5.925781 -22.082031 5.34375 -21.46875 C 4.757812 -20.863281 4.46875 -20.085938 4.46875 -19.140625 C 4.46875 -17.941406 4.882812 -17.050781 5.71875 -16.46875 C 6.550781 -15.882812 7.644531 -15.488281 9 -15.28125 C 10.363281 -15.070312 11.851562 -14.898438 13.46875 -14.765625 C 14.882812 -14.648438 16.296875 -14.5 17.703125 -14.3125 C 19.109375 -14.132812 20.382812 -13.832031 21.53125 -13.40625 C 22.6875 -12.976562 23.601562 -12.3125 24.28125 -11.40625 C 24.96875 -10.5 25.3125 -9.269531 25.3125 -7.71875 C 25.3125 -6.132812 24.921875 -4.8125 24.140625 -3.75 C 23.367188 -2.695312 22.351562 -1.863281 21.09375 -1.25 C 19.84375 -0.632812 18.507812 -0.203125 17.09375 0.046875 C 15.675781 0.296875 14.328125 0.421875 13.046875 0.421875 C 11.992188 0.421875 10.832031 0.328125 9.5625 0.140625 C 8.300781 -0.0351562 7.078125 -0.359375 5.890625 -0.828125 C 4.710938 -1.304688 3.671875 -1.945312 2.765625 -2.75 C 1.867188 -3.5625 1.253906 -4.59375 0.921875 -5.84375 Z M 0.921875 -5.84375 "/></g></g></g><g fill="#d9d9d9" fill-opacity="1"><g transform="translate(117.054722, 210.036857)"><g><path d="M 0.6875 0 L 0.6875 -8.109375 L 4.03125 -8.109375 C 4.8125 -8.109375 5.429688 -7.921875 5.890625 -7.546875 C 6.359375 -7.171875 6.59375 -6.59375 6.59375 -5.8125 C 6.59375 -5.238281 6.429688 -4.773438 6.109375 -4.421875 C 5.796875 -4.078125 5.367188 -3.851562 4.828125 -3.75 L 4.828125 -3.734375 C 5.171875 -3.679688 5.445312 -3.5625 5.65625 -3.375 C 5.863281 -3.1875 6.019531 -2.957031 6.125 -2.6875 C 6.238281 -2.425781 6.316406 -2.148438 6.359375 -1.859375 C 6.410156 -1.566406 6.445312 -1.289062 6.46875 -1.03125 C 6.5 -0.769531 6.53125 -0.550781 6.5625 -0.375 C 6.59375 -0.195312 6.648438 -0.0976562 6.734375 -0.078125 L 6.734375 0 L 5.90625 0 C 5.832031 -0.0625 5.78125 -0.179688 5.75 -0.359375 C 5.726562 -0.546875 5.707031 -0.769531 5.6875 -1.03125 C 5.664062 -1.289062 5.628906 -1.554688 5.578125 -1.828125 C 5.523438 -2.097656 5.441406 -2.351562 5.328125 -2.59375 C 5.210938 -2.832031 5.039062 -3.023438 4.8125 -3.171875 C 4.59375 -3.316406 4.304688 -3.390625 3.953125 -3.390625 L 1.46875 -3.390625 L 1.46875 0 Z M 1.46875 -4.03125 L 3.765625 -4.03125 C 4.367188 -4.03125 4.859375 -4.171875 5.234375 -4.453125 C 5.617188 -4.742188 5.8125 -5.175781 5.8125 -5.75 C 5.8125 -6.351562 5.632812 -6.785156 5.28125 -7.046875 C 4.9375 -7.316406 4.429688 -7.453125 3.765625 -7.453125 L 1.46875 -7.453125 Z M 1.46875 -4.03125 "/></g></g></g><g fill="#d9d9d9" fill-opacity="1"><g transform="translate(126.64108, 210.036857)"><g><path d="M 0.0625 0 L 3.125 -8.109375 L 3.96875 -8.109375 L 7.046875 0 L 6.265625 0 L 5.328125 -2.5 L 1.78125 -2.5 L 0.84375 0 Z M 1.984375 -3.125 L 5.125 -3.125 L 3.5625 -7.328125 L 3.546875 -7.328125 Z M 1.984375 -3.125 "/></g></g></g><g fill="#d9d9d9" fill-opacity="1"><g transform="translate(136.284154, 210.036857)"><g><path d="M 3.765625 -9.21875 L 2.71875 -10.5 L 3.453125 -10.5 L 4.15625 -9.609375 L 4.859375 -10.5 L 5.578125 -10.5 L 4.53125 -9.21875 Z M 4.125 0.140625 C 3.34375 0.140625 2.671875 -0.0351562 2.109375 -0.390625 C 1.554688 -0.742188 1.128906 -1.234375 0.828125 -1.859375 C 0.523438 -2.492188 0.375 -3.222656 0.375 -4.046875 C 0.375 -4.867188 0.523438 -5.59375 0.828125 -6.21875 C 1.128906 -6.851562 1.5625 -7.347656 2.125 -7.703125 C 2.6875 -8.066406 3.359375 -8.25 4.140625 -8.25 C 4.734375 -8.25 5.253906 -8.132812 5.703125 -7.90625 C 6.148438 -7.675781 6.515625 -7.359375 6.796875 -6.953125 C 7.078125 -6.554688 7.253906 -6.09375 7.328125 -5.5625 L 6.546875 -5.5625 C 6.484375 -5.945312 6.34375 -6.289062 6.125 -6.59375 C 5.914062 -6.90625 5.640625 -7.148438 5.296875 -7.328125 C 4.960938 -7.503906 4.570312 -7.59375 4.125 -7.59375 C 3.476562 -7.59375 2.929688 -7.4375 2.484375 -7.125 C 2.046875 -6.820312 1.710938 -6.40625 1.484375 -5.875 C 1.265625 -5.34375 1.15625 -4.734375 1.15625 -4.046875 C 1.15625 -3.359375 1.269531 -2.75 1.5 -2.21875 C 1.726562 -1.6875 2.0625 -1.269531 2.5 -0.96875 C 2.9375 -0.664062 3.46875 -0.515625 4.09375 -0.515625 C 4.59375 -0.515625 5.019531 -0.625 5.375 -0.84375 C 5.738281 -1.0625 6.023438 -1.347656 6.234375 -1.703125 C 6.453125 -2.054688 6.585938 -2.441406 6.640625 -2.859375 L 7.421875 -2.859375 C 7.347656 -2.265625 7.164062 -1.742188 6.875 -1.296875 C 6.59375 -0.847656 6.210938 -0.492188 5.734375 -0.234375 C 5.265625 0.015625 4.726562 0.140625 4.125 0.140625 Z M 4.125 0.140625 "/></g></g></g><g fill="#d9d9d9" fill-opacity="1"><g transform="translate(146.539796, 210.036857)"><g><path d="M 3.625 0.140625 C 2.5625 0.140625 1.789062 -0.113281 1.3125 -0.625 C 0.832031 -1.144531 0.59375 -1.882812 0.59375 -2.84375 L 0.59375 -8.109375 L 1.375 -8.109375 L 1.375 -2.84375 C 1.375 -2.039062 1.5625 -1.453125 1.9375 -1.078125 C 2.3125 -0.703125 2.875 -0.515625 3.625 -0.515625 C 4.382812 -0.515625 4.945312 -0.703125 5.3125 -1.078125 C 5.6875 -1.453125 5.875 -2.039062 5.875 -2.84375 L 5.875 -8.109375 L 6.65625 -8.109375 L 6.65625 -2.84375 C 6.65625 -1.882812 6.414062 -1.144531 5.9375 -0.625 C 5.46875 -0.113281 4.695312 0.140625 3.625 0.140625 Z M 3.625 0.140625 "/></g></g></g><g fill="#d9d9d9" fill-opacity="1"><g transform="translate(156.330339, 210.036857)"><g><path d="M 0.6875 0 L 0.6875 -8.109375 L 1.546875 -8.109375 L 6.140625 -1.203125 L 6.15625 -1.203125 L 6.15625 -8.109375 L 6.9375 -8.109375 L 6.9375 0 L 6.09375 0 L 1.5 -6.890625 L 1.46875 -6.890625 L 1.46875 0 Z M 0.6875 0 "/></g></g></g><g fill="#d9d9d9" fill-opacity="1"><g transform="translate(166.495233, 210.036857)"><g><path d="M 4.171875 0.140625 C 3.398438 0.140625 2.726562 -0.0351562 2.15625 -0.390625 C 1.59375 -0.753906 1.15625 -1.25 0.84375 -1.875 C 0.53125 -2.507812 0.375 -3.238281 0.375 -4.0625 C 0.375 -4.875 0.53125 -5.59375 0.84375 -6.21875 C 1.15625 -6.851562 1.59375 -7.347656 2.15625 -7.703125 C 2.726562 -8.066406 3.398438 -8.25 4.171875 -8.25 C 4.941406 -8.25 5.613281 -8.066406 6.1875 -7.703125 C 6.757812 -7.347656 7.195312 -6.851562 7.5 -6.21875 C 7.8125 -5.59375 7.96875 -4.875 7.96875 -4.0625 C 7.96875 -3.238281 7.8125 -2.507812 7.5 -1.875 C 7.195312 -1.25 6.757812 -0.753906 6.1875 -0.390625 C 5.613281 -0.0351562 4.941406 0.140625 4.171875 0.140625 Z M 4.171875 -0.515625 C 4.773438 -0.515625 5.300781 -0.664062 5.75 -0.96875 C 6.207031 -1.269531 6.5625 -1.6875 6.8125 -2.21875 C 7.0625 -2.75 7.1875 -3.363281 7.1875 -4.0625 C 7.1875 -4.757812 7.0625 -5.375 6.8125 -5.90625 C 6.5625 -6.4375 6.207031 -6.847656 5.75 -7.140625 C 5.300781 -7.441406 4.773438 -7.59375 4.171875 -7.59375 C 3.578125 -7.59375 3.050781 -7.441406 2.59375 -7.140625 C 2.144531 -6.847656 1.789062 -6.4375 1.53125 -5.90625 C 1.28125 -5.375 1.15625 -4.757812 1.15625 -4.0625 C 1.15625 -3.363281 1.28125 -2.75 1.53125 -2.21875 C 1.789062 -1.6875 2.144531 -1.269531 2.59375 -0.96875 C 3.050781 -0.664062 3.578125 -0.515625 4.171875 -0.515625 Z M 4.171875 -0.515625 "/></g></g></g><g fill="#d9d9d9" fill-opacity="1"><g transform="translate(177.374787, 210.036857)"><g><path d="M 3.0625 0 L 0.0625 -8.109375 L 0.890625 -8.109375 L 3.421875 -1.09375 L 3.453125 -1.09375 L 5.984375 -8.109375 L 6.8125 -8.109375 L 3.8125 0 Z M 3.0625 0 "/></g></g></g><g fill="#d9d9d9" fill-opacity="1"><g transform="translate(186.779644, 210.036857)"><g><path d="M 4.171875 0.140625 C 3.398438 0.140625 2.726562 -0.0351562 2.15625 -0.390625 C 1.59375 -0.753906 1.15625 -1.25 0.84375 -1.875 C 0.53125 -2.507812 0.375 -3.238281 0.375 -4.0625 C 0.375 -4.875 0.53125 -5.59375 0.84375 -6.21875 C 1.15625 -6.851562 1.59375 -7.347656 2.15625 -7.703125 C 2.726562 -8.066406 3.398438 -8.25 4.171875 -8.25 C 4.941406 -8.25 5.613281 -8.066406 6.1875 -7.703125 C 6.757812 -7.347656 7.195312 -6.851562 7.5 -6.21875 C 7.8125 -5.59375 7.96875 -4.875 7.96875 -4.0625 C 7.96875 -3.238281 7.8125 -2.507812 7.5 -1.875 C 7.195312 -1.25 6.757812 -0.753906 6.1875 -0.390625 C 5.613281 -0.0351562 4.941406 0.140625 4.171875 0.140625 Z M 4.171875 -0.515625 C 4.773438 -0.515625 5.300781 -0.664062 5.75 -0.96875 C 6.207031 -1.269531 6.5625 -1.6875 6.8125 -2.21875 C 7.0625 -2.75 7.1875 -3.363281 7.1875 -4.0625 C 7.1875 -4.757812 7.0625 -5.375 6.8125 -5.90625 C 6.5625 -6.4375 6.207031 -6.847656 5.75 -7.140625 C 5.300781 -7.441406 4.773438 -7.59375 4.171875 -7.59375 C 3.578125 -7.59375 3.050781 -7.441406 2.59375 -7.140625 C 2.144531 -6.847656 1.789062 -6.4375 1.53125 -5.90625 C 1.28125 -5.375 1.15625 -4.757812 1.15625 -4.0625 C 1.15625 -3.363281 1.28125 -2.75 1.53125 -2.21875 C 1.789062 -1.6875 2.144531 -1.269531 2.59375 -0.96875 C 3.050781 -0.664062 3.578125 -0.515625 4.171875 -0.515625 Z M 4.171875 -0.515625 "/></g></g></g><g fill="#d9d9d9" fill-opacity="1"><g transform="translate(197.659198, 210.036857)"><g><path d="M 0.6875 0 L 0.6875 -8.109375 L 3.765625 -8.109375 C 4.546875 -8.109375 5.1875 -7.929688 5.6875 -7.578125 C 6.1875 -7.222656 6.5625 -6.738281 6.8125 -6.125 C 7.0625 -5.507812 7.1875 -4.8125 7.1875 -4.03125 C 7.1875 -3.238281 7.0625 -2.539062 6.8125 -1.9375 C 6.5625 -1.332031 6.179688 -0.859375 5.671875 -0.515625 C 5.160156 -0.171875 4.519531 0 3.75 0 Z M 1.46875 -0.65625 L 3.65625 -0.65625 C 4.550781 -0.65625 5.226562 -0.957031 5.6875 -1.5625 C 6.15625 -2.164062 6.390625 -2.988281 6.390625 -4.03125 C 6.390625 -5.070312 6.164062 -5.898438 5.71875 -6.515625 C 5.28125 -7.140625 4.609375 -7.453125 3.703125 -7.453125 L 1.46875 -7.453125 Z M 1.46875 -0.65625 "/></g></g></g><g fill="#d9d9d9" fill-opacity="1"><g transform="translate(207.744681, 210.036857)"><g><path d="M 3.609375 0.140625 C 2.984375 0.140625 2.421875 0.0390625 1.921875 -0.15625 C 1.429688 -0.363281 1.03125 -0.671875 0.71875 -1.078125 C 0.414062 -1.492188 0.253906 -2.007812 0.234375 -2.625 L 1.015625 -2.625 C 1.046875 -1.9375 1.296875 -1.410156 1.765625 -1.046875 C 2.242188 -0.691406 2.859375 -0.515625 3.609375 -0.515625 C 4.296875 -0.515625 4.804688 -0.675781 5.140625 -1 C 5.484375 -1.320312 5.660156 -1.703125 5.671875 -2.140625 C 5.671875 -2.546875 5.566406 -2.859375 5.359375 -3.078125 C 5.160156 -3.304688 4.863281 -3.484375 4.46875 -3.609375 C 4.082031 -3.742188 3.609375 -3.863281 3.046875 -3.96875 C 2.535156 -4.070312 2.085938 -4.203125 1.703125 -4.359375 C 1.328125 -4.523438 1.035156 -4.753906 0.828125 -5.046875 C 0.617188 -5.335938 0.515625 -5.710938 0.515625 -6.171875 C 0.515625 -6.640625 0.632812 -7.023438 0.875 -7.328125 C 1.113281 -7.640625 1.4375 -7.867188 1.84375 -8.015625 C 2.257812 -8.171875 2.726562 -8.25 3.25 -8.25 C 3.800781 -8.25 4.289062 -8.15625 4.71875 -7.96875 C 5.15625 -7.78125 5.5 -7.507812 5.75 -7.15625 C 6.007812 -6.800781 6.15625 -6.367188 6.1875 -5.859375 L 5.40625 -5.859375 C 5.351562 -6.390625 5.144531 -6.8125 4.78125 -7.125 C 4.425781 -7.4375 3.914062 -7.59375 3.25 -7.59375 C 2.664062 -7.59375 2.191406 -7.46875 1.828125 -7.21875 C 1.472656 -6.976562 1.296875 -6.640625 1.296875 -6.203125 C 1.296875 -5.847656 1.382812 -5.566406 1.5625 -5.359375 C 1.75 -5.160156 2.007812 -5.003906 2.34375 -4.890625 C 2.6875 -4.785156 3.097656 -4.6875 3.578125 -4.59375 C 4.171875 -4.476562 4.679688 -4.328125 5.109375 -4.140625 C 5.535156 -3.960938 5.863281 -3.71875 6.09375 -3.40625 C 6.332031 -3.101562 6.453125 -2.695312 6.453125 -2.1875 C 6.453125 -1.75 6.335938 -1.351562 6.109375 -1 C 5.890625 -0.644531 5.566406 -0.363281 5.140625 -0.15625 C 4.722656 0.0390625 4.210938 0.140625 3.609375 0.140625 Z M 3.609375 0.140625 "/></g></g></g><g fill="#d9d9d9" fill-opacity="1"><g transform="translate(217.092821, 210.036857)"><g><path d="M 2.984375 0 L 2.984375 -7.453125 L 0.21875 -7.453125 L 0.21875 -8.109375 L 6.515625 -8.109375 L 6.515625 -7.453125 L 3.765625 -7.453125 L 3.765625 0 Z M 2.984375 0 "/></g></g></g><g fill="#d9d9d9" fill-opacity="1"><g transform="translate(226.36155, 210.036857)"><g><path d="M 3.0625 0 L 0.0625 -8.109375 L 0.890625 -8.109375 L 3.421875 -1.09375 L 3.453125 -1.09375 L 5.984375 -8.109375 L 6.8125 -8.109375 L 3.8125 0 Z M 3.0625 0 "/></g></g></g><g fill="#d9d9d9" fill-opacity="1"><g transform="translate(235.766407, 210.036857)"><g><path d="M 4.171875 0.140625 C 3.398438 0.140625 2.726562 -0.0351562 2.15625 -0.390625 C 1.59375 -0.753906 1.15625 -1.25 0.84375 -1.875 C 0.53125 -2.507812 0.375 -3.238281 0.375 -4.0625 C 0.375 -4.875 0.53125 -5.59375 0.84375 -6.21875 C 1.15625 -6.851562 1.59375 -7.347656 2.15625 -7.703125 C 2.726562 -8.066406 3.398438 -8.25 4.171875 -8.25 C 4.941406 -8.25 5.613281 -8.066406 6.1875 -7.703125 C 6.757812 -7.347656 7.195312 -6.851562 7.5 -6.21875 C 7.8125 -5.59375 7.96875 -4.875 7.96875 -4.0625 C 7.96875 -3.238281 7.8125 -2.507812 7.5 -1.875 C 7.195312 -1.25 6.757812 -0.753906 6.1875 -0.390625 C 5.613281 -0.0351562 4.941406 0.140625 4.171875 0.140625 Z M 4.171875 -0.515625 C 4.773438 -0.515625 5.300781 -0.664062 5.75 -0.96875 C 6.207031 -1.269531 6.5625 -1.6875 6.8125 -2.21875 C 7.0625 -2.75 7.1875 -3.363281 7.1875 -4.0625 C 7.1875 -4.757812 7.0625 -5.375 6.8125 -5.90625 C 6.5625 -6.4375 6.207031 -6.847656 5.75 -7.140625 C 5.300781 -7.441406 4.773438 -7.59375 4.171875 -7.59375 C 3.578125 -7.59375 3.050781 -7.441406 2.59375 -7.140625 C 2.144531 -6.847656 1.789062 -6.4375 1.53125 -5.90625 C 1.28125 -5.375 1.15625 -4.757812 1.15625 -4.0625 C 1.15625 -3.363281 1.28125 -2.75 1.53125 -2.21875 C 1.789062 -1.6875 2.144531 -1.269531 2.59375 -0.96875 C 3.050781 -0.664062 3.578125 -0.515625 4.171875 -0.515625 Z M 4.171875 -0.515625 "/></g></g></g><g fill="#d9d9d9" fill-opacity="1"><g transform="translate(246.645961, 210.036857)"><g/></g></g><g fill="#d9d9d9" fill-opacity="1"><g transform="translate(251.615398, 210.036857)"><g><path d="M 0.71875 0 L 0.71875 -8.109375 L 1.515625 -8.109375 L 1.515625 0 Z M 0.71875 0 "/></g></g></g><g fill="#d9d9d9" fill-opacity="1"><g transform="translate(256.369308, 210.036857)"><g/></g></g><g fill="#d9d9d9" fill-opacity="1"><g transform="translate(261.338744, 210.036857)"><g><path d="M 0.6875 0 L 0.6875 -8.109375 L 6.109375 -8.109375 L 6.109375 -7.453125 L 1.46875 -7.453125 L 1.46875 -4.453125 L 5.421875 -4.453125 L 5.421875 -3.796875 L 1.46875 -3.796875 L 1.46875 0 Z M 0.6875 0 "/></g></g></g><g fill="#d9d9d9" fill-opacity="1"><g transform="translate(270.26716, 210.036857)"><g><path d="M 0.71875 0 L 0.71875 -8.109375 L 1.515625 -8.109375 L 1.515625 0 Z M 0.71875 0 "/></g></g></g><g fill="#d9d9d9" fill-opacity="1"><g transform="translate(275.02107, 210.036857)"><g><path d="M 0.6875 0 L 0.6875 -8.109375 L 1.546875 -8.109375 L 6.140625 -1.203125 L 6.15625 -1.203125 L 6.15625 -8.109375 L 6.9375 -8.109375 L 6.9375 0 L 6.09375 0 L 1.5 -6.890625 L 1.46875 -6.890625 L 1.46875 0 Z M 0.6875 0 "/></g></g></g><g fill="#d9d9d9" fill-opacity="1"><g transform="translate(285.185964, 210.036857)"><g><path d="M 0.0625 0 L 3.125 -8.109375 L 3.96875 -8.109375 L 7.046875 0 L 6.265625 0 L 5.328125 -2.5 L 1.78125 -2.5 L 0.84375 0 Z M 1.984375 -3.125 L 5.125 -3.125 L 3.5625 -7.328125 L 3.546875 -7.328125 Z M 1.984375 -3.125 "/></g></g></g><g fill="#d9d9d9" fill-opacity="1"><g transform="translate(294.829041, 210.036857)"><g><path d="M 0.6875 0 L 0.6875 -8.109375 L 1.546875 -8.109375 L 6.140625 -1.203125 L 6.15625 -1.203125 L 6.15625 -8.109375 L 6.9375 -8.109375 L 6.9375 0 L 6.09375 0 L 1.5 -6.890625 L 1.46875 -6.890625 L 1.46875 0 Z M 0.6875 0 "/></g></g></g><g fill="#d9d9d9" fill-opacity="1"><g transform="translate(304.993934, 210.036857)"><g><path d="M 4.125 0.140625 C 3.34375 0.140625 2.671875 -0.0351562 2.109375 -0.390625 C 1.554688 -0.742188 1.128906 -1.234375 0.828125 -1.859375 C 0.523438 -2.492188 0.375 -3.222656 0.375 -4.046875 C 0.375 -4.867188 0.523438 -5.59375 0.828125 -6.21875 C 1.128906 -6.851562 1.5625 -7.347656 2.125 -7.703125 C 2.6875 -8.066406 3.359375 -8.25 4.140625 -8.25 C 4.734375 -8.25 5.253906 -8.132812 5.703125 -7.90625 C 6.148438 -7.675781 6.515625 -7.359375 6.796875 -6.953125 C 7.078125 -6.554688 7.253906 -6.09375 7.328125 -5.5625 L 6.546875 -5.5625 C 6.484375 -5.945312 6.34375 -6.289062 6.125 -6.59375 C 5.914062 -6.90625 5.640625 -7.148438 5.296875 -7.328125 C 4.960938 -7.503906 4.570312 -7.59375 4.125 -7.59375 C 3.476562 -7.59375 2.929688 -7.4375 2.484375 -7.125 C 2.046875 -6.820312 1.710938 -6.40625 1.484375 -5.875 C 1.265625 -5.34375 1.15625 -4.734375 1.15625 -4.046875 C 1.15625 -3.359375 1.269531 -2.75 1.5 -2.21875 C 1.726562 -1.6875 2.0625 -1.269531 2.5 -0.96875 C 2.9375 -0.664062 3.46875 -0.515625 4.09375 -0.515625 C 4.59375 -0.515625 5.019531 -0.625 5.375 -0.84375 C 5.738281 -1.0625 6.023438 -1.347656 6.234375 -1.703125 C 6.453125 -2.054688 6.585938 -2.441406 6.640625 -2.859375 L 7.421875 -2.859375 C 7.347656 -2.265625 7.164062 -1.742188 6.875 -1.296875 C 6.59375 -0.847656 6.210938 -0.492188 5.734375 -0.234375 C 5.265625 0.015625 4.726562 0.140625 4.125 0.140625 Z M 4.125 0.140625 "/></g></g></g><g fill="#d9d9d9" fill-opacity="1"><g transform="translate(315.249579, 210.036857)"><g><path d="M 0.71875 0 L 0.71875 -8.109375 L 1.515625 -8.109375 L 1.515625 0 Z M 0.71875 0 "/></g></g></g><g fill="#d9d9d9" fill-opacity="1"><g transform="translate(320.003478, 210.036857)"><g><path d="M 2.5 0.140625 C 1.96875 0.140625 1.53125 0.0351562 1.1875 -0.171875 C 0.851562 -0.378906 0.609375 -0.660156 0.453125 -1.015625 C 0.304688 -1.378906 0.234375 -1.78125 0.234375 -2.21875 L 0.234375 -2.640625 L 0.953125 -2.640625 L 0.953125 -2.21875 C 0.953125 -1.675781 1.085938 -1.253906 1.359375 -0.953125 C 1.628906 -0.660156 2 -0.515625 2.46875 -0.515625 C 2.957031 -0.515625 3.332031 -0.660156 3.59375 -0.953125 C 3.863281 -1.253906 4 -1.675781 4 -2.21875 L 4 -8.109375 L 4.78125 -8.109375 L 4.78125 -2.21875 C 4.78125 -1.78125 4.703125 -1.378906 4.546875 -1.015625 C 4.398438 -0.660156 4.15625 -0.378906 3.8125 -0.171875 C 3.476562 0.0351562 3.039062 0.140625 2.5 0.140625 Z M 2.5 0.140625 "/></g></g></g><g fill="#d9d9d9" fill-opacity="1"><g transform="translate(327.94499, 210.036857)"><g><path d="M 0.6875 0 L 0.6875 -8.109375 L 6.234375 -8.109375 L 6.234375 -7.453125 L 1.46875 -7.453125 L 1.46875 -4.609375 L 5.78125 -4.609375 L 5.78125 -3.953125 L 1.46875 -3.953125 L 1.46875 -0.65625 L 6.328125 -0.65625 L 6.328125 0 Z M 0.6875 0 "/></g></g></g><g clip-path="url(#fde0093c0f)"><path fill="#d9d9d9" d="M 40.640625 212.894531 C 40.230469 212.890625 39.835938 212.8125 39.457031 212.65625 C 39.078125 212.496094 38.746094 212.273438 38.453125 211.984375 C 38.164062 211.691406 37.941406 211.355469 37.785156 210.976562 C 37.628906 210.597656 37.550781 210.203125 37.550781 209.792969 L 37.550781 157.28125 C 37.550781 156.871094 37.628906 156.476562 37.785156 156.097656 C 37.941406 155.71875 38.167969 155.382812 38.457031 155.09375 C 38.746094 154.800781 39.082031 154.578125 39.460938 154.421875 C 39.839844 154.265625 40.234375 154.183594 40.644531 154.183594 C 41.054688 154.183594 41.449219 154.265625 41.828125 154.421875 C 42.210938 154.578125 42.542969 154.800781 42.835938 155.09375 C 43.125 155.382812 43.347656 155.71875 43.503906 156.097656 C 43.664062 156.476562 43.742188 156.871094 43.742188 157.28125 L 43.742188 209.792969 C 43.738281 210.203125 43.660156 210.601562 43.503906 210.980469 C 43.347656 211.359375 43.121094 211.695312 42.832031 211.984375 C 42.542969 212.273438 42.207031 212.5 41.828125 212.65625 C 41.449219 212.8125 41.050781 212.890625 40.640625 212.894531 Z M 40.640625 155.519531 C 40.410156 155.519531 40.183594 155.566406 39.96875 155.65625 C 39.753906 155.742188 39.5625 155.871094 39.398438 156.035156 C 39.234375 156.203125 39.109375 156.390625 39.019531 156.609375 C 38.929688 156.824219 38.886719 157.046875 38.886719 157.28125 L 38.886719 209.792969 C 38.886719 210.027344 38.929688 210.25 39.019531 210.46875 C 39.109375 210.683594 39.238281 210.871094 39.402344 211.039062 C 39.566406 211.203125 39.757812 211.328125 39.972656 211.417969 C 40.1875 211.507812 40.410156 211.554688 40.644531 211.554688 C 40.878906 211.554688 41.101562 211.507812 41.316406 211.417969 C 41.535156 211.328125 41.722656 211.203125 41.890625 211.039062 C 42.054688 210.871094 42.179688 210.683594 42.269531 210.46875 C 42.359375 210.25 42.402344 210.027344 42.402344 209.792969 L 42.402344 157.28125 C 42.40625 157.046875 42.359375 156.820312 42.269531 156.605469 C 42.183594 156.390625 42.054688 156.199219 41.890625 156.035156 C 41.722656 155.867188 41.535156 155.742188 41.316406 155.652344 C 41.101562 155.5625 40.875 155.519531 40.640625 155.519531 Z M 40.640625 155.519531 " fill-opacity="1" fill-rule="nonzero"/></g><path fill="#d9d9d9" d="M 98.605469 212.894531 C 98.195312 212.890625 97.800781 212.8125 97.421875 212.65625 C 97.042969 212.496094 96.707031 212.273438 96.417969 211.984375 C 96.128906 211.691406 95.90625 211.355469 95.75 210.976562 C 95.589844 210.597656 95.511719 210.203125 95.511719 209.792969 L 95.511719 157.28125 C 95.511719 156.871094 95.589844 156.476562 95.75 156.097656 C 95.90625 155.71875 96.128906 155.382812 96.417969 155.09375 C 96.710938 154.800781 97.042969 154.578125 97.425781 154.421875 C 97.804688 154.265625 98.199219 154.183594 98.609375 154.183594 C 99.019531 154.183594 99.414062 154.265625 99.792969 154.421875 C 100.171875 154.578125 100.507812 154.800781 100.796875 155.09375 C 101.085938 155.382812 101.3125 155.71875 101.46875 156.097656 C 101.625 156.476562 101.703125 156.871094 101.703125 157.28125 L 101.703125 209.792969 C 101.703125 210.203125 101.625 210.601562 101.46875 210.980469 C 101.308594 211.359375 101.085938 211.695312 100.796875 211.984375 C 100.503906 212.273438 100.171875 212.5 99.789062 212.65625 C 99.410156 212.8125 99.015625 212.890625 98.605469 212.894531 Z M 98.605469 155.519531 C 98.371094 155.519531 98.148438 155.566406 97.933594 155.65625 C 97.71875 155.742188 97.527344 155.871094 97.363281 156.035156 C 97.199219 156.203125 97.070312 156.390625 96.984375 156.609375 C 96.894531 156.824219 96.851562 157.046875 96.851562 157.28125 L 96.851562 209.792969 C 96.851562 210.027344 96.894531 210.25 96.984375 210.46875 C 97.074219 210.683594 97.199219 210.871094 97.363281 211.039062 C 97.53125 211.203125 97.71875 211.328125 97.9375 211.417969 C 98.152344 211.507812 98.375 211.554688 98.609375 211.554688 C 98.84375 211.554688 99.066406 211.507812 99.28125 211.417969 C 99.496094 211.328125 99.6875 211.203125 99.851562 211.039062 C 100.015625 210.871094 100.144531 210.683594 100.234375 210.46875 C 100.324219 210.25 100.367188 210.027344 100.367188 209.792969 L 100.367188 157.28125 C 100.367188 157.046875 100.324219 156.820312 100.234375 156.605469 C 100.144531 156.390625 100.019531 156.199219 99.851562 156.03125 C 99.6875 155.867188 99.496094 155.738281 99.28125 155.652344 C 99.066406 155.5625 98.839844 155.519531 98.605469 155.519531 Z M 98.605469 155.519531 " fill-opacity="1" fill-rule="nonzero"/><path fill="#d9d9d9" d="M 96.179688 165.21875 L 74.242188 165.21875 C 74.058594 165.21875 73.902344 165.15625 73.769531 165.023438 C 73.640625 164.894531 73.574219 164.734375 73.574219 164.550781 C 73.574219 164.367188 73.640625 164.210938 73.769531 164.078125 C 73.902344 163.949219 74.058594 163.882812 74.242188 163.882812 L 96.179688 163.882812 C 96.363281 163.882812 96.519531 163.949219 96.652344 164.078125 C 96.78125 164.210938 96.847656 164.367188 96.847656 164.550781 C 96.847656 164.734375 96.78125 164.894531 96.652344 165.023438 C 96.519531 165.15625 96.363281 165.21875 96.179688 165.21875 Z M 96.179688 165.21875 " fill-opacity="1" fill-rule="nonzero"/><path fill="#d9d9d9" d="M 69.246094 165.21875 L 63.777344 165.21875 C 63.59375 165.21875 63.4375 165.15625 63.304688 165.023438 C 63.175781 164.894531 63.109375 164.734375 63.109375 164.550781 C 63.109375 164.367188 63.175781 164.210938 63.304688 164.078125 C 63.4375 163.949219 63.59375 163.882812 63.777344 163.882812 L 69.246094 163.882812 C 69.429688 163.882812 69.589844 163.949219 69.71875 164.078125 C 69.851562 164.210938 69.914062 164.367188 69.914062 164.550781 C 69.914062 164.734375 69.851562 164.894531 69.71875 165.023438 C 69.589844 165.15625 69.429688 165.21875 69.246094 165.21875 Z M 69.246094 165.21875 " fill-opacity="1" fill-rule="nonzero"/><path fill="#d9d9d9" d="M 58.78125 165.21875 L 53.304688 165.21875 C 53.121094 165.21875 52.964844 165.15625 52.832031 165.023438 C 52.703125 164.894531 52.636719 164.734375 52.636719 164.550781 C 52.636719 164.367188 52.703125 164.210938 52.832031 164.078125 C 52.964844 163.949219 53.121094 163.882812 53.304688 163.882812 L 58.78125 163.882812 C 58.964844 163.882812 59.121094 163.949219 59.253906 164.078125 C 59.382812 164.210938 59.449219 164.367188 59.449219 164.550781 C 59.449219 164.734375 59.382812 164.894531 59.253906 165.023438 C 59.121094 165.15625 58.964844 165.21875 58.78125 165.21875 Z M 58.78125 165.21875 " fill-opacity="1" fill-rule="nonzero"/><path fill="#d9d9d9" d="M 48.308594 165.21875 L 43.074219 165.21875 C 42.886719 165.21875 42.730469 165.15625 42.601562 165.023438 C 42.46875 164.894531 42.402344 164.734375 42.402344 164.550781 C 42.402344 164.367188 42.46875 164.210938 42.601562 164.078125 C 42.730469 163.949219 42.886719 163.882812 43.074219 163.882812 L 48.308594 163.882812 C 48.492188 163.882812 48.652344 163.949219 48.78125 164.078125 C 48.910156 164.210938 48.976562 164.367188 48.976562 164.550781 C 48.976562 164.734375 48.910156 164.894531 48.78125 165.023438 C 48.652344 165.15625 48.492188 165.21875 48.308594 165.21875 Z M 48.308594 165.21875 " fill-opacity="1" fill-rule="nonzero"/><path fill="#d9d9d9" d="M 96.179688 178.164062 L 91.933594 178.164062 C 91.75 178.164062 91.589844 178.097656 91.460938 177.96875 C 91.328125 177.835938 91.265625 177.679688 91.265625 177.496094 C 91.265625 177.3125 91.328125 177.152344 91.460938 177.023438 C 91.589844 176.890625 91.75 176.828125 91.933594 176.828125 L 96.179688 176.828125 C 96.363281 176.828125 96.519531 176.890625 96.652344 177.023438 C 96.78125 177.152344 96.847656 177.3125 96.847656 177.496094 C 96.847656 177.679688 96.78125 177.835938 96.652344 177.96875 C 96.519531 178.097656 96.363281 178.164062 96.179688 178.164062 Z M 96.179688 178.164062 " fill-opacity="1" fill-rule="nonzero"/><path fill="#d9d9d9" d="M 86.933594 178.164062 L 81.464844 178.164062 C 81.28125 178.164062 81.125 178.097656 80.996094 177.96875 C 80.863281 177.835938 80.796875 177.679688 80.796875 177.496094 C 80.796875 177.3125 80.863281 177.152344 80.996094 177.023438 C 81.125 176.890625 81.28125 176.828125 81.464844 176.828125 L 86.933594 176.828125 C 87.121094 176.828125 87.277344 176.890625 87.40625 177.023438 C 87.539062 177.152344 87.605469 177.3125 87.605469 177.496094 C 87.605469 177.679688 87.539062 177.835938 87.40625 177.96875 C 87.277344 178.097656 87.121094 178.164062 86.933594 178.164062 Z M 86.933594 178.164062 " fill-opacity="1" fill-rule="nonzero"/><path fill="#d9d9d9" d="M 76.46875 178.164062 L 70.996094 178.164062 C 70.808594 178.164062 70.652344 178.097656 70.523438 177.96875 C 70.390625 177.835938 70.324219 177.679688 70.324219 177.496094 C 70.324219 177.3125 70.390625 177.152344 70.523438 177.023438 C 70.652344 176.890625 70.808594 176.828125 70.996094 176.828125 L 76.46875 176.828125 C 76.652344 176.828125 76.8125 176.890625 76.941406 177.023438 C 77.074219 177.152344 77.136719 177.3125 77.136719 177.496094 C 77.136719 177.679688 77.074219 177.835938 76.941406 177.96875 C 76.8125 178.097656 76.652344 178.164062 76.46875 178.164062 Z M 76.46875 178.164062 " fill-opacity="1" fill-rule="nonzero"/><path fill="#d9d9d9" d="M 65.996094 178.164062 L 43.074219 178.164062 C 42.890625 178.164062 42.730469 178.097656 42.601562 177.96875 C 42.472656 177.835938 42.40625 177.679688 42.40625 177.496094 C 42.40625 177.3125 42.472656 177.152344 42.601562 177.023438 C 42.730469 176.890625 42.890625 176.828125 43.074219 176.828125 L 65.996094 176.828125 C 66.179688 176.828125 66.339844 176.890625 66.46875 177.023438 C 66.597656 177.152344 66.664062 177.3125 66.664062 177.496094 C 66.664062 177.679688 66.597656 177.835938 66.46875 177.96875 C 66.339844 178.097656 66.179688 178.164062 65.996094 178.164062 Z M 65.996094 178.164062 " fill-opacity="1" fill-rule="nonzero"/><path fill="#d9d9d9" d="M 96.179688 191.109375 L 74.242188 191.109375 C 74.058594 191.109375 73.902344 191.042969 73.769531 190.910156 C 73.640625 190.78125 73.574219 190.625 73.574219 190.4375 C 73.574219 190.253906 73.640625 190.097656 73.769531 189.964844 C 73.902344 189.835938 74.058594 189.769531 74.242188 189.769531 L 96.179688 189.769531 C 96.363281 189.769531 96.519531 189.835938 96.652344 189.964844 C 96.78125 190.097656 96.847656 190.253906 96.847656 190.4375 C 96.847656 190.625 96.78125 190.78125 96.652344 190.910156 C 96.519531 191.042969 96.363281 191.109375 96.179688 191.109375 Z M 96.179688 191.109375 " fill-opacity="1" fill-rule="nonzero"/><path fill="#d9d9d9" d="M 69.246094 191.109375 L 63.777344 191.109375 C 63.59375 191.109375 63.4375 191.042969 63.304688 190.910156 C 63.175781 190.78125 63.109375 190.625 63.109375 190.4375 C 63.109375 190.253906 63.175781 190.097656 63.304688 189.964844 C 63.4375 189.835938 63.59375 189.769531 63.777344 189.769531 L 69.246094 189.769531 C 69.429688 189.769531 69.589844 189.835938 69.71875 189.964844 C 69.851562 190.097656 69.914062 190.253906 69.914062 190.4375 C 69.914062 190.625 69.851562 190.78125 69.71875 190.910156 C 69.589844 191.042969 69.429688 191.109375 69.246094 191.109375 Z M 69.246094 191.109375 " fill-opacity="1" fill-rule="nonzero"/><path fill="#d9d9d9" d="M 58.78125 191.109375 L 53.304688 191.109375 C 53.121094 191.109375 52.964844 191.042969 52.832031 190.910156 C 52.703125 190.78125 52.636719 190.625 52.636719 190.4375 C 52.636719 190.253906 52.703125 190.097656 52.832031 189.964844 C 52.964844 189.835938 53.121094 189.769531 53.304688 189.769531 L 58.78125 189.769531 C 58.964844 189.769531 59.121094 189.835938 59.253906 189.964844 C 59.382812 190.097656 59.449219 190.253906 59.449219 190.4375 C 59.449219 190.625 59.382812 190.78125 59.253906 190.910156 C 59.121094 191.042969 58.964844 191.109375 58.78125 191.109375 Z M 58.78125 191.109375 " fill-opacity="1" fill-rule="nonzero"/><path fill="#d9d9d9" d="M 48.308594 191.109375 L 43.074219 191.109375 C 42.886719 191.109375 42.730469 191.042969 42.601562 190.910156 C 42.46875 190.78125 42.402344 190.625 42.402344 190.4375 C 42.402344 190.253906 42.46875 190.097656 42.601562 189.964844 C 42.730469 189.835938 42.886719 189.769531 43.074219 189.769531 L 48.308594 189.769531 C 48.492188 189.769531 48.652344 189.835938 48.78125 189.964844 C 48.910156 190.097656 48.976562 190.253906 48.976562 190.4375 C 48.976562 190.625 48.910156 190.78125 48.78125 190.910156 C 48.652344 191.042969 48.492188 191.109375 48.308594 191.109375 Z M 48.308594 191.109375 " fill-opacity="1" fill-rule="nonzero"/><path fill="#d9d9d9" d="M 96.179688 204.054688 L 90.296875 204.054688 C 90.113281 204.054688 89.957031 203.988281 89.824219 203.859375 C 89.695312 203.726562 89.628906 203.570312 89.628906 203.386719 C 89.628906 203.199219 89.695312 203.042969 89.824219 202.914062 C 89.957031 202.78125 90.113281 202.71875 90.296875 202.71875 L 96.179688 202.71875 C 96.363281 202.71875 96.519531 202.78125 96.652344 202.914062 C 96.78125 203.042969 96.847656 203.199219 96.847656 203.386719 C 96.847656 203.570312 96.78125 203.726562 96.652344 203.859375 C 96.519531 203.988281 96.363281 204.054688 96.179688 204.054688 Z M 96.179688 204.054688 " fill-opacity="1" fill-rule="nonzero"/><path fill="#d9d9d9" d="M 85.296875 204.054688 L 79.820312 204.054688 C 79.636719 204.054688 79.480469 203.988281 79.347656 203.859375 C 79.21875 203.726562 79.152344 203.570312 79.152344 203.386719 C 79.152344 203.199219 79.21875 203.042969 79.347656 202.914062 C 79.480469 202.78125 79.636719 202.71875 79.820312 202.71875 L 85.296875 202.71875 C 85.480469 202.71875 85.636719 202.78125 85.769531 202.914062 C 85.898438 203.042969 85.964844 203.199219 85.964844 203.386719 C 85.964844 203.570312 85.898438 203.726562 85.769531 203.859375 C 85.636719 203.988281 85.480469 204.054688 85.296875 204.054688 Z M 85.296875 204.054688 " fill-opacity="1" fill-rule="nonzero"/><path fill="#d9d9d9" d="M 74.824219 204.054688 L 69.355469 204.054688 C 69.171875 204.054688 69.011719 203.988281 68.882812 203.859375 C 68.753906 203.726562 68.6875 203.570312 68.6875 203.386719 C 68.6875 203.199219 68.753906 203.042969 68.882812 202.914062 C 69.011719 202.78125 69.171875 202.71875 69.355469 202.71875 L 74.824219 202.71875 C 75.007812 202.71875 75.164062 202.78125 75.296875 202.914062 C 75.425781 203.042969 75.492188 203.199219 75.492188 203.386719 C 75.492188 203.570312 75.425781 203.726562 75.296875 203.859375 C 75.164062 203.988281 75.007812 204.054688 74.824219 204.054688 Z M 74.824219 204.054688 " fill-opacity="1" fill-rule="nonzero"/><path fill="#d9d9d9" d="M 64.359375 204.054688 L 43.074219 204.054688 C 42.886719 204.054688 42.730469 203.988281 42.601562 203.859375 C 42.46875 203.726562 42.402344 203.570312 42.402344 203.386719 C 42.402344 203.199219 42.46875 203.042969 42.601562 202.914062 C 42.730469 202.78125 42.886719 202.71875 43.074219 202.71875 L 64.359375 202.71875 C 64.542969 202.71875 64.699219 202.78125 64.832031 202.914062 C 64.960938 203.042969 65.027344 203.199219 65.027344 203.386719 C 65.027344 203.570312 64.960938 203.726562 64.832031 203.859375 C 64.699219 203.988281 64.542969 204.054688 64.359375 204.054688 Z M 64.359375 204.054688 " fill-opacity="1" fill-rule="nonzero"/><path fill="#d9d9d9" d="M 50.808594 195.058594 C 50.386719 195.058594 49.984375 194.980469 49.597656 194.820312 C 49.210938 194.660156 48.867188 194.429688 48.570312 194.136719 C 48.273438 193.839844 48.046875 193.496094 47.882812 193.109375 C 47.722656 192.722656 47.640625 192.320312 47.640625 191.902344 L 47.640625 188.976562 C 47.644531 188.339844 47.824219 187.753906 48.179688 187.222656 C 48.535156 186.691406 49.007812 186.304688 49.597656 186.058594 C 50.191406 185.816406 50.796875 185.753906 51.425781 185.878906 C 52.054688 186 52.59375 186.289062 53.046875 186.738281 L 53.054688 186.746094 C 53.664062 187.363281 53.972656 188.109375 53.976562 188.976562 L 53.976562 191.902344 C 53.972656 192.320312 53.890625 192.722656 53.730469 193.109375 C 53.570312 193.496094 53.339844 193.839844 53.042969 194.136719 C 52.746094 194.433594 52.40625 194.660156 52.015625 194.820312 C 51.628906 194.980469 51.226562 195.058594 50.808594 195.058594 Z M 50.808594 187.15625 C 50.566406 187.15625 50.332031 187.199219 50.109375 187.292969 C 49.882812 187.386719 49.6875 187.515625 49.515625 187.6875 C 49.34375 187.859375 49.210938 188.054688 49.117188 188.28125 C 49.023438 188.503906 48.976562 188.738281 48.976562 188.976562 L 48.976562 191.902344 C 48.976562 192.144531 49.023438 192.378906 49.117188 192.601562 C 49.210938 192.824219 49.339844 193.023438 49.511719 193.195312 C 49.683594 193.367188 49.882812 193.5 50.105469 193.59375 C 50.332031 193.683594 50.566406 193.730469 50.808594 193.730469 C 51.050781 193.730469 51.285156 193.683594 51.507812 193.59375 C 51.730469 193.5 51.929688 193.367188 52.101562 193.195312 C 52.273438 193.023438 52.40625 192.824219 52.5 192.601562 C 52.589844 192.378906 52.636719 192.144531 52.636719 191.902344 L 52.636719 188.976562 C 52.636719 188.472656 52.457031 188.039062 52.097656 187.679688 C 51.742188 187.324219 51.3125 187.152344 50.808594 187.15625 Z M 50.808594 187.15625 " fill-opacity="1" fill-rule="nonzero"/><path fill="#d9d9d9" d="M 71.746094 195.058594 C 71.324219 195.058594 70.921875 194.980469 70.535156 194.820312 C 70.148438 194.660156 69.804688 194.429688 69.507812 194.136719 C 69.210938 193.839844 68.984375 193.496094 68.820312 193.109375 C 68.660156 192.722656 68.578125 192.320312 68.578125 191.902344 L 68.578125 188.976562 C 68.582031 188.339844 68.761719 187.753906 69.117188 187.222656 C 69.472656 186.691406 69.945312 186.304688 70.535156 186.058594 C 71.128906 185.816406 71.734375 185.753906 72.363281 185.878906 C 72.992188 186 73.53125 186.289062 73.984375 186.738281 L 73.992188 186.746094 C 74.601562 187.363281 74.910156 188.109375 74.910156 188.976562 L 74.910156 191.902344 C 74.910156 192.320312 74.828125 192.722656 74.667969 193.109375 C 74.507812 193.496094 74.277344 193.839844 73.980469 194.136719 C 73.683594 194.429688 73.34375 194.660156 72.957031 194.820312 C 72.566406 194.980469 72.164062 195.058594 71.746094 195.058594 Z M 71.746094 187.15625 C 71.503906 187.15625 71.269531 187.199219 71.046875 187.292969 C 70.824219 187.386719 70.625 187.515625 70.453125 187.6875 C 70.28125 187.859375 70.148438 188.054688 70.054688 188.28125 C 69.960938 188.503906 69.914062 188.734375 69.914062 188.976562 L 69.914062 191.902344 C 69.917969 192.140625 69.96875 192.371094 70.0625 192.589844 C 70.160156 192.8125 70.292969 193.003906 70.464844 193.171875 C 70.632812 193.339844 70.832031 193.46875 71.050781 193.558594 C 71.273438 193.652344 71.503906 193.695312 71.746094 193.695312 C 71.984375 193.695312 72.214844 193.652344 72.4375 193.558594 C 72.660156 193.46875 72.855469 193.339844 73.027344 193.171875 C 73.199219 193.003906 73.332031 192.8125 73.425781 192.589844 C 73.519531 192.371094 73.570312 192.140625 73.574219 191.902344 L 73.574219 188.976562 C 73.574219 188.472656 73.394531 188.039062 73.039062 187.679688 C 72.683594 187.324219 72.25 187.148438 71.746094 187.15625 Z M 71.746094 187.15625 " fill-opacity="1" fill-rule="nonzero"/><path fill="#d9d9d9" d="M 77.324219 208.003906 C 76.902344 208.003906 76.5 207.925781 76.113281 207.765625 C 75.726562 207.605469 75.382812 207.375 75.085938 207.078125 C 74.789062 206.785156 74.558594 206.441406 74.398438 206.054688 C 74.238281 205.667969 74.15625 205.265625 74.15625 204.84375 L 74.15625 201.921875 C 74.15625 201.28125 74.335938 200.699219 74.695312 200.167969 C 75.050781 199.636719 75.523438 199.25 76.113281 199.003906 C 76.703125 198.757812 77.3125 198.699219 77.941406 198.820312 C 78.570312 198.945312 79.109375 199.230469 79.5625 199.679688 L 79.570312 199.6875 C 80.179688 200.308594 80.488281 201.054688 80.488281 201.921875 L 80.488281 204.84375 C 80.488281 205.265625 80.40625 205.667969 80.246094 206.054688 C 80.085938 206.441406 79.855469 206.78125 79.558594 207.078125 C 79.261719 207.375 78.921875 207.605469 78.53125 207.765625 C 78.144531 207.925781 77.742188 208.003906 77.324219 208.003906 Z M 77.324219 200.097656 C 77.082031 200.097656 76.847656 200.144531 76.625 200.238281 C 76.398438 200.328125 76.203125 200.460938 76.03125 200.632812 C 75.859375 200.800781 75.726562 201 75.632812 201.222656 C 75.539062 201.445312 75.492188 201.679688 75.492188 201.921875 L 75.492188 204.84375 C 75.496094 205.085938 75.546875 205.3125 75.640625 205.535156 C 75.734375 205.753906 75.867188 205.949219 76.039062 206.117188 C 76.210938 206.285156 76.40625 206.414062 76.628906 206.503906 C 76.851562 206.59375 77.082031 206.640625 77.324219 206.640625 C 77.5625 206.640625 77.792969 206.59375 78.015625 206.503906 C 78.238281 206.414062 78.433594 206.285156 78.605469 206.117188 C 78.777344 205.949219 78.910156 205.753906 79.003906 205.535156 C 79.097656 205.3125 79.148438 205.085938 79.152344 204.84375 L 79.152344 201.921875 C 79.152344 201.417969 78.972656 200.984375 78.617188 200.625 C 78.257812 200.269531 77.828125 200.09375 77.324219 200.097656 Z M 77.324219 200.097656 " fill-opacity="1" fill-rule="nonzero"/><path fill="#d9d9d9" d="M 89.433594 182.117188 C 89.015625 182.117188 88.609375 182.035156 88.222656 181.875 C 87.835938 181.714844 87.492188 181.488281 87.195312 181.191406 C 86.898438 180.894531 86.671875 180.554688 86.507812 180.167969 C 86.347656 179.78125 86.265625 179.375 86.265625 178.957031 L 86.265625 176.035156 C 86.269531 175.394531 86.449219 174.808594 86.804688 174.277344 C 87.160156 173.75 87.636719 173.359375 88.226562 173.117188 C 88.816406 172.871094 89.425781 172.8125 90.050781 172.933594 C 90.679688 173.058594 91.21875 173.34375 91.675781 173.792969 C 92.289062 174.414062 92.597656 175.160156 92.601562 176.035156 L 92.601562 178.957031 C 92.601562 179.375 92.519531 179.78125 92.359375 180.167969 C 92.195312 180.554688 91.96875 180.894531 91.671875 181.191406 C 91.375 181.488281 91.03125 181.714844 90.644531 181.875 C 90.257812 182.035156 89.851562 182.117188 89.433594 182.117188 Z M 89.433594 174.210938 C 89.191406 174.210938 88.957031 174.257812 88.734375 174.347656 C 88.511719 174.441406 88.3125 174.574219 88.140625 174.742188 C 87.96875 174.914062 87.835938 175.113281 87.742188 175.335938 C 87.652344 175.558594 87.605469 175.792969 87.601562 176.035156 L 87.601562 178.957031 C 87.609375 179.195312 87.65625 179.425781 87.753906 179.648438 C 87.847656 179.867188 87.980469 180.0625 88.152344 180.230469 C 88.324219 180.398438 88.519531 180.527344 88.742188 180.617188 C 88.964844 180.707031 89.195312 180.753906 89.433594 180.753906 C 89.671875 180.753906 89.90625 180.707031 90.125 180.617188 C 90.347656 180.527344 90.542969 180.398438 90.714844 180.230469 C 90.886719 180.0625 91.019531 179.867188 91.113281 179.648438 C 91.210938 179.425781 91.261719 179.195312 91.265625 178.957031 L 91.265625 176.035156 C 91.261719 175.527344 91.082031 175.089844 90.722656 174.730469 C 90.363281 174.378906 89.9375 174.207031 89.433594 174.210938 Z M 89.433594 174.210938 " fill-opacity="1" fill-rule="nonzero"/><path fill="#d9d9d9" d="M 50.808594 169.0625 C 50.386719 169.0625 49.984375 168.984375 49.59375 168.820312 C 49.207031 168.660156 48.863281 168.429688 48.566406 168.132812 C 48.273438 167.835938 48.042969 167.496094 47.882812 167.105469 C 47.722656 166.71875 47.640625 166.316406 47.640625 165.894531 L 47.640625 162.980469 C 47.640625 162.339844 47.820312 161.753906 48.175781 161.222656 C 48.53125 160.6875 49.003906 160.300781 49.597656 160.054688 C 50.1875 159.808594 50.796875 159.75 51.425781 159.875 C 52.054688 160 52.59375 160.289062 53.046875 160.742188 C 53.664062 161.359375 53.972656 162.105469 53.972656 162.976562 L 53.972656 165.894531 C 53.972656 166.316406 53.890625 166.71875 53.730469 167.105469 C 53.570312 167.496094 53.339844 167.835938 53.042969 168.132812 C 52.75 168.429688 52.40625 168.660156 52.019531 168.820312 C 51.628906 168.980469 51.226562 169.0625 50.808594 169.0625 Z M 50.808594 161.152344 C 50.5625 161.152344 50.332031 161.199219 50.105469 161.289062 C 49.882812 161.382812 49.683594 161.515625 49.511719 161.6875 C 49.34375 161.859375 49.210938 162.058594 49.117188 162.28125 C 49.023438 162.503906 48.976562 162.738281 48.976562 162.980469 L 48.976562 165.894531 C 48.976562 166.136719 49.023438 166.371094 49.117188 166.59375 C 49.210938 166.820312 49.339844 167.019531 49.511719 167.1875 C 49.683594 167.359375 49.882812 167.492188 50.105469 167.585938 C 50.332031 167.679688 50.566406 167.726562 50.808594 167.726562 C 51.050781 167.726562 51.285156 167.679688 51.507812 167.585938 C 51.730469 167.492188 51.929688 167.359375 52.101562 167.1875 C 52.273438 167.019531 52.40625 166.820312 52.5 166.59375 C 52.589844 166.371094 52.636719 166.136719 52.636719 165.894531 L 52.636719 162.980469 C 52.636719 162.476562 52.460938 162.042969 52.101562 161.683594 C 51.746094 161.324219 51.3125 161.148438 50.808594 161.148438 Z M 50.808594 161.152344 " fill-opacity="1" fill-rule="nonzero"/><path fill="#d9d9d9" d="M 71.746094 169.0625 C 71.324219 169.0625 70.921875 168.984375 70.535156 168.820312 C 70.144531 168.660156 69.804688 168.433594 69.507812 168.132812 C 69.210938 167.835938 68.980469 167.496094 68.820312 167.105469 C 68.660156 166.71875 68.578125 166.316406 68.578125 165.894531 L 68.578125 162.980469 C 68.578125 162.339844 68.757812 161.753906 69.113281 161.222656 C 69.46875 160.6875 69.941406 160.300781 70.535156 160.054688 C 71.125 159.808594 71.734375 159.75 72.363281 159.875 C 72.992188 160 73.53125 160.289062 73.984375 160.742188 L 73.984375 160.746094 C 74.601562 161.363281 74.910156 162.109375 74.910156 162.980469 L 74.910156 165.894531 C 74.90625 166.316406 74.828125 166.71875 74.667969 167.105469 C 74.507812 167.492188 74.277344 167.835938 73.980469 168.132812 C 73.683594 168.429688 73.34375 168.660156 72.957031 168.820312 C 72.570312 168.980469 72.164062 169.0625 71.746094 169.0625 Z M 71.746094 161.152344 C 71.503906 161.152344 71.269531 161.199219 71.046875 161.289062 C 70.820312 161.382812 70.625 161.515625 70.453125 161.6875 C 70.28125 161.859375 70.148438 162.058594 70.054688 162.28125 C 69.960938 162.503906 69.914062 162.738281 69.914062 162.980469 L 69.914062 165.894531 C 69.910156 166.140625 69.953125 166.378906 70.042969 166.605469 C 70.136719 166.835938 70.265625 167.035156 70.4375 167.210938 C 70.609375 167.386719 70.808594 167.523438 71.035156 167.617188 C 71.261719 167.710938 71.5 167.761719 71.746094 167.761719 C 71.992188 167.761719 72.226562 167.710938 72.453125 167.617188 C 72.679688 167.523438 72.878906 167.386719 73.050781 167.210938 C 73.222656 167.035156 73.355469 166.835938 73.445312 166.605469 C 73.535156 166.378906 73.578125 166.140625 73.574219 165.894531 L 73.574219 162.980469 C 73.574219 162.476562 73.398438 162.042969 73.039062 161.683594 C 72.683594 161.324219 72.25 161.148438 71.746094 161.148438 Z M 71.746094 161.152344 " fill-opacity="1" fill-rule="nonzero"/><path fill="#d9d9d9" d="M 61.28125 195.058594 C 60.859375 195.058594 60.457031 194.980469 60.070312 194.820312 C 59.683594 194.660156 59.339844 194.429688 59.042969 194.136719 C 58.746094 193.839844 58.515625 193.496094 58.355469 193.109375 C 58.195312 192.722656 58.113281 192.320312 58.113281 191.902344 L 58.113281 188.976562 C 58.113281 188.339844 58.292969 187.753906 58.652344 187.222656 C 59.007812 186.691406 59.480469 186.304688 60.070312 186.058594 C 60.660156 185.816406 61.269531 185.753906 61.898438 185.878906 C 62.523438 186 63.066406 186.289062 63.519531 186.738281 L 63.527344 186.746094 C 64.136719 187.363281 64.445312 188.109375 64.445312 188.976562 L 64.445312 191.902344 C 64.445312 192.320312 64.363281 192.722656 64.203125 193.109375 C 64.042969 193.496094 63.8125 193.839844 63.515625 194.136719 C 63.21875 194.429688 62.878906 194.660156 62.488281 194.820312 C 62.101562 194.980469 61.699219 195.058594 61.28125 195.058594 Z M 61.28125 187.15625 C 61.039062 187.15625 60.804688 187.199219 60.582031 187.292969 C 60.355469 187.386719 60.160156 187.515625 59.988281 187.6875 C 59.816406 187.859375 59.683594 188.054688 59.589844 188.28125 C 59.496094 188.503906 59.449219 188.734375 59.449219 188.976562 L 59.449219 191.902344 C 59.449219 192.144531 59.496094 192.378906 59.589844 192.601562 C 59.679688 192.824219 59.8125 193.023438 59.984375 193.195312 C 60.15625 193.367188 60.355469 193.5 60.578125 193.59375 C 60.804688 193.683594 61.035156 193.730469 61.28125 193.730469 C 61.523438 193.730469 61.753906 193.683594 61.980469 193.59375 C 62.203125 193.5 62.402344 193.367188 62.574219 193.195312 C 62.746094 193.023438 62.878906 192.824219 62.96875 192.601562 C 63.0625 192.378906 63.109375 192.144531 63.109375 191.902344 L 63.109375 188.976562 C 63.109375 188.472656 62.929688 188.039062 62.570312 187.679688 C 62.214844 187.324219 61.78125 187.152344 61.28125 187.15625 Z M 61.28125 187.15625 " fill-opacity="1" fill-rule="nonzero"/><path fill="#d9d9d9" d="M 68.496094 182.117188 C 68.078125 182.117188 67.671875 182.035156 67.285156 181.875 C 66.898438 181.714844 66.554688 181.488281 66.257812 181.191406 C 65.960938 180.894531 65.730469 180.554688 65.570312 180.167969 C 65.410156 179.78125 65.328125 179.375 65.328125 178.957031 L 65.328125 176.035156 C 65.332031 175.394531 65.511719 174.808594 65.867188 174.277344 C 66.222656 173.75 66.695312 173.359375 67.289062 173.117188 C 67.878906 172.871094 68.488281 172.808594 69.113281 172.933594 C 69.742188 173.058594 70.28125 173.34375 70.734375 173.792969 C 71.351562 174.414062 71.660156 175.160156 71.664062 176.035156 L 71.664062 178.957031 C 71.660156 179.375 71.582031 179.78125 71.417969 180.167969 C 71.257812 180.554688 71.027344 180.894531 70.730469 181.191406 C 70.433594 181.488281 70.09375 181.714844 69.707031 181.875 C 69.316406 182.035156 68.914062 182.117188 68.496094 182.117188 Z M 68.496094 174.210938 C 68.253906 174.210938 68.019531 174.257812 67.796875 174.347656 C 67.574219 174.441406 67.375 174.574219 67.203125 174.742188 C 67.03125 174.914062 66.898438 175.113281 66.804688 175.335938 C 66.710938 175.558594 66.664062 175.792969 66.664062 176.035156 L 66.664062 178.957031 C 66.667969 179.195312 66.71875 179.425781 66.8125 179.648438 C 66.910156 179.867188 67.042969 180.0625 67.210938 180.230469 C 67.382812 180.398438 67.582031 180.527344 67.800781 180.617188 C 68.023438 180.707031 68.253906 180.753906 68.496094 180.753906 C 68.734375 180.753906 68.964844 180.707031 69.1875 180.617188 C 69.410156 180.527344 69.605469 180.398438 69.777344 180.230469 C 69.949219 180.0625 70.082031 179.867188 70.175781 179.648438 C 70.273438 179.425781 70.320312 179.195312 70.324219 178.957031 L 70.324219 176.035156 C 70.324219 175.523438 70.144531 175.089844 69.785156 174.730469 C 69.425781 174.378906 68.996094 174.207031 68.496094 174.210938 Z M 68.496094 174.210938 " fill-opacity="1" fill-rule="nonzero"/><path fill="#d9d9d9" d="M 87.796875 208.003906 C 87.375 208.003906 86.972656 207.925781 86.585938 207.765625 C 86.199219 207.605469 85.855469 207.375 85.558594 207.078125 C 85.261719 206.785156 85.03125 206.441406 84.871094 206.054688 C 84.710938 205.667969 84.628906 205.265625 84.628906 204.84375 L 84.628906 201.921875 C 84.628906 201.28125 84.808594 200.699219 85.167969 200.167969 C 85.523438 199.636719 85.996094 199.25 86.585938 199.003906 C 87.175781 198.757812 87.785156 198.699219 88.414062 198.820312 C 89.042969 198.945312 89.582031 199.230469 90.035156 199.679688 L 90.042969 199.6875 C 90.652344 200.308594 90.960938 201.054688 90.960938 201.921875 L 90.960938 204.84375 C 90.960938 205.265625 90.878906 205.667969 90.71875 206.054688 C 90.558594 206.441406 90.328125 206.78125 90.03125 207.078125 C 89.734375 207.375 89.394531 207.605469 89.003906 207.765625 C 88.617188 207.925781 88.214844 208.003906 87.796875 208.003906 Z M 87.796875 200.097656 C 87.554688 200.097656 87.320312 200.144531 87.097656 200.238281 C 86.871094 200.328125 86.675781 200.460938 86.503906 200.632812 C 86.332031 200.800781 86.199219 201 86.105469 201.222656 C 86.011719 201.445312 85.964844 201.679688 85.964844 201.921875 L 85.964844 204.84375 C 85.96875 205.085938 86.019531 205.3125 86.113281 205.535156 C 86.207031 205.753906 86.339844 205.949219 86.511719 206.117188 C 86.683594 206.285156 86.878906 206.414062 87.101562 206.503906 C 87.324219 206.59375 87.554688 206.640625 87.796875 206.640625 C 88.035156 206.640625 88.265625 206.59375 88.488281 206.503906 C 88.710938 206.414062 88.90625 206.285156 89.078125 206.117188 C 89.25 205.949219 89.382812 205.753906 89.476562 205.535156 C 89.570312 205.3125 89.621094 205.085938 89.625 204.84375 L 89.625 201.921875 C 89.625 201.414062 89.445312 200.984375 89.085938 200.625 C 88.730469 200.269531 88.296875 200.09375 87.796875 200.097656 Z M 87.796875 200.097656 " fill-opacity="1" fill-rule="nonzero"/><path fill="#d9d9d9" d="M 66.855469 208.003906 C 66.4375 208.003906 66.035156 207.925781 65.648438 207.765625 C 65.257812 207.605469 64.917969 207.375 64.621094 207.078125 C 64.324219 206.78125 64.09375 206.441406 63.933594 206.054688 C 63.773438 205.667969 63.691406 205.265625 63.691406 204.84375 L 63.691406 201.921875 C 63.691406 201.28125 63.871094 200.699219 64.230469 200.167969 C 64.585938 199.636719 65.058594 199.25 65.648438 199.003906 C 66.238281 198.757812 66.847656 198.699219 67.476562 198.820312 C 68.101562 198.945312 68.644531 199.230469 69.097656 199.679688 L 69.105469 199.6875 C 69.714844 200.308594 70.019531 201.054688 70.023438 201.921875 L 70.023438 204.84375 C 70.023438 205.265625 69.941406 205.667969 69.78125 206.054688 C 69.621094 206.441406 69.390625 206.78125 69.09375 207.078125 C 68.796875 207.375 68.453125 207.605469 68.066406 207.765625 C 67.679688 207.925781 67.277344 208.003906 66.855469 208.003906 Z M 66.855469 200.097656 C 66.613281 200.097656 66.382812 200.144531 66.15625 200.238281 C 65.933594 200.328125 65.734375 200.460938 65.566406 200.632812 C 65.394531 200.804688 65.261719 201 65.167969 201.222656 C 65.074219 201.445312 65.027344 201.679688 65.027344 201.921875 L 65.027344 204.84375 C 65.027344 205.085938 65.074219 205.320312 65.164062 205.546875 C 65.257812 205.769531 65.390625 205.96875 65.5625 206.140625 C 65.734375 206.3125 65.933594 206.441406 66.15625 206.535156 C 66.378906 206.628906 66.613281 206.675781 66.855469 206.675781 C 67.101562 206.675781 67.332031 206.628906 67.558594 206.535156 C 67.78125 206.441406 67.980469 206.3125 68.152344 206.140625 C 68.324219 205.96875 68.457031 205.769531 68.546875 205.546875 C 68.640625 205.320312 68.6875 205.085938 68.6875 204.84375 L 68.6875 201.921875 C 68.6875 201.414062 68.507812 200.980469 68.148438 200.621094 C 67.789062 200.269531 67.359375 200.09375 66.855469 200.097656 Z M 66.855469 200.097656 " fill-opacity="1" fill-rule="nonzero"/><path fill="#d9d9d9" d="M 61.28125 169.0625 C 60.859375 169.0625 60.457031 168.984375 60.066406 168.820312 C 59.679688 168.660156 59.335938 168.433594 59.039062 168.132812 C 58.742188 167.835938 58.515625 167.496094 58.355469 167.105469 C 58.191406 166.71875 58.113281 166.316406 58.113281 165.894531 L 58.113281 162.980469 C 58.113281 162.339844 58.289062 161.753906 58.648438 161.222656 C 59.003906 160.6875 59.476562 160.300781 60.070312 160.054688 C 60.660156 159.808594 61.269531 159.75 61.898438 159.875 C 62.527344 160 63.066406 160.289062 63.519531 160.742188 C 64.136719 161.359375 64.445312 162.105469 64.445312 162.976562 L 64.445312 165.894531 C 64.445312 166.316406 64.363281 166.71875 64.203125 167.105469 C 64.042969 167.496094 63.8125 167.835938 63.515625 168.132812 C 63.21875 168.429688 62.878906 168.660156 62.492188 168.820312 C 62.101562 168.980469 61.699219 169.0625 61.28125 169.0625 Z M 61.28125 161.152344 C 61.035156 161.152344 60.804688 161.199219 60.578125 161.289062 C 60.355469 161.382812 60.15625 161.515625 59.984375 161.6875 C 59.8125 161.859375 59.683594 162.058594 59.589844 162.28125 C 59.496094 162.503906 59.449219 162.738281 59.449219 162.980469 L 59.449219 165.894531 C 59.449219 166.136719 59.496094 166.371094 59.589844 166.59375 C 59.679688 166.820312 59.8125 167.019531 59.984375 167.1875 C 60.15625 167.359375 60.355469 167.492188 60.578125 167.585938 C 60.804688 167.679688 61.035156 167.726562 61.28125 167.726562 C 61.523438 167.726562 61.753906 167.679688 61.980469 167.585938 C 62.203125 167.492188 62.402344 167.359375 62.574219 167.1875 C 62.746094 167.019531 62.878906 166.820312 62.96875 166.59375 C 63.0625 166.371094 63.109375 166.136719 63.109375 165.894531 L 63.109375 162.980469 C 63.109375 162.476562 62.929688 162.042969 62.574219 161.683594 C 62.21875 161.324219 61.785156 161.148438 61.28125 161.148438 Z M 61.28125 161.152344 " fill-opacity="1" fill-rule="nonzero"/><path fill="#d9d9d9" d="M 78.96875 182.117188 C 78.546875 182.117188 78.144531 182.035156 77.757812 181.875 C 77.371094 181.714844 77.027344 181.488281 76.730469 181.191406 C 76.433594 180.894531 76.203125 180.554688 76.042969 180.167969 C 75.882812 179.78125 75.800781 179.375 75.800781 178.957031 L 75.800781 176.035156 C 75.804688 175.394531 75.984375 174.808594 76.339844 174.277344 C 76.695312 173.75 77.167969 173.359375 77.757812 173.117188 C 78.351562 172.871094 78.960938 172.808594 79.585938 172.933594 C 80.214844 173.058594 80.753906 173.34375 81.207031 173.792969 L 81.214844 173.800781 C 81.824219 174.421875 82.132812 175.164062 82.136719 176.035156 L 82.136719 178.957031 C 82.132812 179.375 82.054688 179.78125 81.890625 180.167969 C 81.730469 180.554688 81.5 180.894531 81.203125 181.191406 C 80.90625 181.488281 80.566406 181.714844 80.179688 181.875 C 79.789062 182.035156 79.386719 182.117188 78.96875 182.117188 Z M 78.96875 174.210938 C 78.726562 174.210938 78.492188 174.257812 78.269531 174.347656 C 78.046875 174.441406 77.847656 174.574219 77.675781 174.742188 C 77.503906 174.914062 77.371094 175.113281 77.277344 175.335938 C 77.183594 175.558594 77.136719 175.792969 77.136719 176.035156 L 77.136719 178.957031 C 77.140625 179.195312 77.191406 179.425781 77.285156 179.648438 C 77.382812 179.867188 77.515625 180.0625 77.683594 180.230469 C 77.855469 180.398438 78.054688 180.527344 78.273438 180.617188 C 78.496094 180.707031 78.726562 180.753906 78.96875 180.753906 C 79.207031 180.753906 79.4375 180.707031 79.660156 180.617188 C 79.882812 180.527344 80.078125 180.398438 80.25 180.230469 C 80.421875 180.0625 80.554688 179.867188 80.648438 179.648438 C 80.746094 179.425781 80.792969 179.195312 80.796875 178.957031 L 80.796875 176.035156 C 80.796875 175.527344 80.621094 175.09375 80.265625 174.734375 C 79.90625 174.378906 79.472656 174.207031 78.96875 174.210938 Z M 78.96875 174.210938 " fill-opacity="1" fill-rule="nonzero"/><g clip-path="url(#a5bc1374ac)"><g clip-path="url(#f4645cdb28)"><g clip-path="url(#cf88a99bc1)"><path fill="#9d2d2d" d="M 330.152344 152.507812 L 312.21875 150.535156 C 308.757812 150.152344 307.726562 156.882812 311.835938 157.261719 L 323.007812 158.296875 L 321.417969 169.503906 C 320.9375 172.914062 327.601562 173.714844 328.019531 170.242188 Z M 330.152344 152.507812 " fill-opacity="1" fill-rule="nonzero"/></g></g></g></svg>